# xmcd
#
# Track frame offsets:
#	150
#	10568
#	21794
#	36119
#	48214
#	62782
#	73467
#	84231
#	98462
#	110817
#	124540
#	143262
#	156694
#	170593
#	182059
#
# Disc length: 2554 seconds
# Revision: 0
# Processed by: cddbd v1.5.2PL0 Copyright (c) Steve Scherf et al.
# Submitted via: dBpowerAMP V12.0
#
DISCID=c009f80f
DTITLE=Sutton, Holt and Coleman - Ready For The Times
DYEAR=2013
DGENRE=Country
TTITLE0=Johnson Gals
TTITLE1=Down the Road
TTITLE2=Red Rocking Chair
TTITLE3=Streamline Cannonball
TTITLE4=Hotel Wall
TTITLE5=Georgia Buck
TTITLE6=Hangman's Reel
TTITLE7=Ready For the Times to Get Better
TTITLE8=Darlin' Cory
TTITLE9=15 Cents
TTITLE10=Travelin' Man
TTITLE11=Train That Carried My Girl From Town
TTITLE12=Solid Gone
TTITLE13=Cindy
TTITLE14=Forked Deer
EXTD=
EXTT0=
EXTT1=
EXTT2=
EXTT3=
EXTT4=
EXTT5=
EXTT6=
EXTT7=
EXTT8=
EXTT9=
EXTT10=
EXTT11=
EXTT12=
EXTT13=
EXTT14=
PLAYORDER=
